:SAMPLES-PER-SECOND 30
:FULLY-SPECIFIED
:DEGREES
41
root  78.0512 39.5248 -0.0027878 166.384 -84.7275 -168.707
RightUpLeg  -18.1628 -8.13601 -1.24969
RightLeg  7.42223 -5.53413 2.65579
RightFoot  2.21257 -0.852021 7.28918
RightToes  -4.65663e-010 0 -3.6325e-017
Spine  7.631 0.719201 0.367581
Spine1  5.98011 0.698499 -0.204815
HEad  21.2743 2.76657 1.06468
LeftShoulder1  4.02901 -7.03444 -32.1629
LeftArm  -21.5228 8.89828 -25.6214
LeftForeArm  22.7099 -7.76164 -1.52761
LeftHand  -0.244104 0.0205437 5.32207
RightShoulder  2.67502 4.88157 25.8153
RightArm  -13.5463 -17.1422 26.2852
RightForeArm  11.7366 17.1206 4.22595
RightHand  -1.32318 4.38502 -15.8991
LeftUpLeg  5.38367 5.98619 -1.18278
LeftLeg  10.4857 19.0164 -2.0815
LeftFoot  -15.6849 0.166919 1.91981
LeftToes  -5.82109e-011 -4.83791e-012 -1.00937e-011
42
root  77.5489 39.4304 0.011993 172.727 -85.2427 -175.008
RightUpLeg  -17.9535 -5.35511 -2.39921
RightLeg  2.78033 -6.97378 4.18074
RightFoot  2.67057 -0.816944 6.78791
RightToes  -4.65663e-010 0 -3.6325e-017
Spine  7.27055 0.315567 -0.356771
Spine1  7.52459 0.101544 0.308462
HEad  20.5966 3.28484 0.835612
LeftShoulder1  4.65748 -7.97554 -34.4978
LeftArm  -19.7868 6.4165 -28.8718
LeftForeArm  24.1096 -5.59773 -1.9951
LeftHand  -0.244104 0.0205437 5.32207
RightShoulder  2.92235 5.35331 26.9517
RightArm  -12.4043 -17.8245 30.7026
RightForeArm  14.5113 16.4809 4.25475
RightHand  -1.15912 3.4596 -15.3802
LeftUpLeg  6.2909 5.83447 -1.78229
LeftLeg  10.1985 18.6297 -2.38682
LeftFoot  -16.4146 0.169901 1.61325
LeftToes  -5.82109e-011 -4.83791e-012 -1.00937e-011
43
root  76.954 39.2857 0.0240519 179.635 -85.8987 177.83
RightUpLeg  -17.9505 -5.25334 -2.63902
RightLeg  1.22027 -6.35533 4.47285
RightFoot  3.17299 -0.839335 6.74989
RightToes  -4.65663e-010 0 -3.6325e-017
Spine  7.1576 -0.316016 -1.11222
Spine1  8.98719 -0.782642 0.880298
HEad  19.78 3.88288 0.361454
LeftShoulder1  5.13202 -8.62616 -36.1994
LeftArm  -18.0437 4.31226 -32.3769
LeftForeArm  27.8151 -4.84884 -2.55453
LeftHand  -0.244104 0.0205437 5.32207
RightShoulder  3.06758 5.61506 27.6164
RightArm  -13.4834 -18.4073 35.6639
RightForeArm  16.6486 15.697 4.17133
RightHand  -1.07064 2.74345 -15.4278
LeftUpLeg  7.56593 5.87497 -2.21181
LeftLeg  10.2141 17.8912 -2.64079
LeftFoot  -17.4592 0.173124 1.2764
LeftToes  -5.82109e-011 -4.83791e-012 -1.00937e-011
44
root  76.2448 39.1039 0.026415 -173.288 -86.5728 170.35
RightUpLeg  -18.0781 -5.82716 -2.61661
RightLeg  2.93192 -6.53235 4.20279
RightFoot  3.78168 -0.863219 6.68952
RightToes  -4.65663e-010 0 -3.6325e-017
Spine  7.36088 -1.06336 -1.9079
Spine1  9.95932 -1.90368 1.76603
HEad  19.0951 4.97813 -0.465883
LeftShoulder1  5.48174 -8.99547 -37.6986
LeftArm  -15.2668 2.66825 -35.462
LeftForeArm  33.943 -5.7862 -3.54773
LeftHand  -0.244104 0.0205437 5.32207
RightShoulder  3.17902 5.80389 28.1461
RightArm  -16.1701 -19.13 40.2703
RightForeArm  17.3536 14.6575 4.00373
RightHand  -1.06028 2.53056 -15.6755
LeftUpLeg  9.09766 6.14074 -2.39041
LeftLeg  10.5613 16.9533 -2.73224
LeftFoot  -18.6976 0.168905 0.885847
LeftToes  -5.82109e-011 -4.83791e-012 -1.00937e-011
45
root  75.4146 38.9402 0.0115819 -169.765 -87.3301 166.589
RightUpLeg  -18.3306 -7.88697 -1.73781
RightLeg  6.43225 -6.01788 3.55207
RightFoot  4.88419 -0.651465 4.83033
RightToes  -4.65663e-010 0 -3.6325e-017
Spine  7.57791 -1.70835 -2.5853
Spine1  10.3531 -3.118 3.35364
HEad  18.5406 5.91116 -1.43287
LeftShoulder1  5.69893 -9.04714 -39.1833
LeftArm  -11.8062 1.40167 -38.0965
LeftForeArm  41.8534 -8.13305 -4.70362
LeftHand  -0.244104 0.0205437 5.32207
RightShoulder  3.26112 5.87967 28.7622
RightArm  -18.3671 -20.156 43.6053
RightForeArm  16.0567 13.4499 3.95079
RightHand  -1.04953 2.34033 -15.8913
LeftUpLeg  10.732 6.54284 -2.11756
LeftLeg  10.7956 15.6135 -2.70565
LeftFoot  -19.9817 0.12556 0.0820099
LeftToes  -5.82109e-011 -4.83791e-012 -1.00937e-011
46
root  74.4959 38.8393 -0.0102235 172.021 -88.2112 -175.196
RightUpLeg  -18.7301 -10.8165 0.227495
RightLeg  10.057 -4.26839 2.65122
RightFoot  6.04847 -0.0758216 0.763881
RightToes  -4.65663e-010 0 -3.6325e-017
Spine  7.80881 -2.25411 -2.4479
Spine1  10.2455 -4.29536 5.43915
HEad  18.0111 6.38413 -2.47214
LeftShoulder1  5.75356 -8.79996 -40.4614
LeftArm  -8.89883 0.646418 -40.7238
LeftForeArm  48.0273 -11.271 -5.17516
LeftHand  -0.244104 0.0205437 5.32207
RightShoulder  3.29199 5.82032 29.3258
RightArm  -18.8539 -21.3182 45.5536
RightForeArm  15.3147 12.2494 4.06384
RightHand  -0.937486 1.74847 -15.3384
LeftUpLeg  12.3781 7.10325 -1.04861
LeftLeg  10.6867 13.7398 -2.44135
LeftFoot  -21.0675 0.0423077 -0.992454
LeftToes  -5.82109e-011 -4.83791e-012 -1.00937e-011
47
root  73.5244 38.7701 -0.0285498 119.446 -88.3385 -122.633
RightUpLeg  -19.2489 -13.2734 2.73289
RightLeg  13.5889 -2.26525 1.48648
RightFoot  5.93936 0.513171 -3.13255
RightToes  -4.65663e-010 0 -3.6325e-017
Spine  8.36038 -2.81644 -1.12981
Spine1  9.68895 -5.27439 7.22085
HEad  17.496 6.65475 -3.57294
LeftShoulder1  5.79758 -8.64503 -41.3548
LeftArm  -6.85448 0.662369 -43.12
LeftForeArm  48.6344 -14.5888 -4.64925
LeftHand  -0.244104 0.0205437 5.32207
RightShoulder  3.34884 5.86681 29.7643
RightArm  -18.0375 -22.4145 46.4548
RightForeArm  17.853 11.3111 4.17382
RightHand  -0.755667 1.13094 -13.5555
LeftUpLeg  13.8683 8.12938 0.740152
LeftLeg  11.0024 11.5512 -1.55077
LeftFoot  -21.7327 -0.0322326 -1.78999
LeftToes  -5.82109e-011 -4.83791e-012 -1.00937e-011
48
root  72.5129 38.6805 -0.0619261 86.9957 -87.2359 -90.4089
RightUpLeg  -19.5411 -14.8911 4.7849
RightLeg  17.2481 -0.972563 0.115891
RightFoot  4.05242 0.671865 -4.74445
RightToes  -4.65663e-010 0 -3.6325e-017
Spine  9.1448 -3.36775 0.571314
Spine1  9.00904 -5.96414 8.32038
HEad  17.1202 6.83677 -4.53757
LeftShoulder1  6.0673 -9.03197 -41.9919
LeftArm  -5.65449 1.19199 -44.2503
LeftForeArm  45.3281 -17.5233 -3.86838
LeftHand  -0.244104 0.0205437 5.32207
RightShoulder  3.51618 6.22763 30.1668
RightArm  -16.9303 -23.3071 46.6456
RightForeArm  22.0535 10.7224 4.20478
RightHand  -0.651046 1.13166 -11.7207
LeftUpLeg  14.8083 10.1367 2.71291
LeftLeg  13.0069 8.59582 0.116608
LeftFoot  -22.0014 -0.143375 -2.93513
LeftToes  -5.82109e-011 -4.83791e-012 -1.00937e-011
49
root  71.4905 38.5955 -0.138401 76.4788 -86.3798 -80.2187
RightUpLeg  -19.1145 -15.2989 5.5225
RightLeg  20.4008 -1.3632 -0.827032
RightFoot  1.39106 0.555594 -4.88584
RightToes  -4.65663e-010 0 -3.6325e-017
Spine  9.86797 -3.81547 1.74617
Spine1  8.56035 -6.4475 9.16767
HEad  16.8963 6.80049 -5.09637
LeftShoulder1  6.4751 -9.74383 -42.4468
LeftArm  -4.70666 1.50011 -43.8308
LeftForeArm  42.5699 -19.5801 -3.37993
LeftHand  -0.244104 0.0205437 5.32207
RightShoulder  3.70886 6.67659 30.4737
RightArm  -16.1808 -23.7775 46.5181
RightForeArm  24.0781 10.3335 4.25835
RightHand  -0.645665 1.2969 -11.338
LeftUpLeg  14.4902 11.7462 4.23172
LeftLeg  17.5001 5.37506 1.92085
LeftFoot  -21.6407 -0.422696 -6.12836
LeftToes  -5.82109e-011 -4.83791e-012 -1.00937e-011
50
root  70.5129 38.5472 -0.252534 67.1595 -85.7633 -71.0469
RightUpLeg  -18.3274 -15.7902 5.66022
RightLeg  22.6838 -1.99271 -1.13687
RightFoot  -1.09641 0.454693 -5.15509
RightToes  -4.65663e-010 0 -3.6325e-017
Spine  10.4627 -4.1836 2.70086
Spine1  8.32396 -6.70931 9.87069
HEad  16.5042 6.18814 -4.98609
LeftShoulder1  6.69305 -10.1813 -42.4783
LeftArm  -4.30701 1.22047 -42.761
LeftForeArm  42.5539 -20.7444 -3.12133
LeftHand  -0.244104 0.0205437 5.32207
RightShoulder  3.77604 6.82547 30.6007
RightArm  -15.9291 -23.6287 46.4088
RightForeArm  23.0401 10.1686 4.3693
RightHand  -0.656494 0.975462 -12.0849
LeftUpLeg  11.9308 9.65487 4.78327
LeftLeg  25.101 5.09563 2.98593
LeftFoot  -19.3743 -0.643558 -11.0492
LeftToes  -5.82109e-011 -4.83791e-012 -1.00937e-011
